<!--?xml version="1.0" encoding="utf-8"?-->
<!-- Generator: Adobe Illustrator 15.1.0, SVG Export Plug-In . SVG Version: 6.00 Build 0)  -->

<svg version="1.1" id="_x32_" xmlns="http://www.w3.org/2000/svg" xmlns:xlink="http://www.w3.org/1999/xlink" x="0px" y="0px" width="512px" height="512px" viewBox="0 0 512 512" style="width: 256px; height: 256px; opacity: 1;" xml:space="preserve">
<style type="text/css">

	.st0{fill:#4B4B4B;}

</style>
<g>
	<path class="st0" d="M508.217,243.54c-5.547-6.297-15.141-6.906-21.438-1.359L315.935,393.446
		c-7.953,7.016-18.109,10.766-28.516,10.766c-3.031,0-6.078-0.313-9.109-0.969L49.263,352.571c-2.734-0.906-5.188-2.172-7.375-3.766
		c-3.438-2.5-6.203-5.797-8.109-9.547c-1.906-3.734-2.938-7.906-2.938-12.172c0-2.656,0.406-5.344,1.25-8.063l0,0
		c0.922-2.906,2.25-5.5,3.922-7.797c2.5-3.438,5.797-6.203,9.531-8.109c3.75-1.906,7.922-2.938,12.188-2.938
		c0.703,0,1.422,0.047,2.125,0.094l208.969,45.188c18.094,3.906,36.969-1,50.859-13.25l181.391-159.844
		c8.234-7.266,11.703-18.563,8.922-29.203c-2.766-10.641-11.297-18.813-22.047-21.141l-11.453-2.484l-91.094,80.266
		c-1.484,1.313-3.453,1.953-5.438,1.719c-1.969-0.219-3.734-1.25-4.906-2.844l-14.953-20.625l-40.531,5.641
		c-3.078,0.438-6.078-1.203-7.359-4.016c-1.313-2.828-0.594-6.156,1.734-8.219l79.328-69.906L287.826,78.743
		c-18.094-3.906-36.984,1-50.875,13.25L16.904,285.368c-1.531,1.703-2.844,3.5-4,5.344c-0.609,0.766-1.234,1.547-1.813,2.359
		c-3.625,4.953-6.5,10.578-8.422,16.719c-1.797,5.719-2.672,11.563-2.672,17.297c0,12.313,3.953,24.109,10.969,33.828
		c3.5,4.859,7.797,9.203,12.766,12.813c4.953,3.625,10.578,6.5,16.703,8.422l0.641,0.203l230.828,50.563
		c5.156,1.125,10.359,1.656,15.516,1.656c17.719,0,35.031-6.406,48.578-18.344l170.86-151.266
		C513.154,259.415,513.748,249.821,508.217,243.54z" style="fill: rgb(75, 75, 75);"></path>
</g>
</svg>
